HIERARCHY
ROOT Hips
{
	OFFSET 0.000000 0.000000 0.000000
	CHANNELS 6 Xposition Yposition Zposition Xrotation Yrotation Zrotation
	JOINT LeftUpLeg_virtual
	{
		OFFSET 0.000000 0.000000 0.000000
		CHANNELS 3 Xrotation Yrotation Zrotation
		JOINT LeftUpLeg
		{
			OFFSET 11.394100 -6.187798 -0.413800
			CHANNELS 3 Xrotation Yrotation Zrotation
			JOINT LeftLeg
			{
				OFFSET 0.430247 -32.302673 3.732800
				CHANNELS 3 Xrotation Yrotation Zrotation
				JOINT LeftFoot
				{
					OFFSET -0.430247 -48.264931 -6.423300
					CHANNELS 3 Xrotation Yrotation Zrotation
					JOINT LeftToeBase
					{
						OFFSET 4.230900 -16.068199 23.438400
						CHANNELS 3 Xrotation Yrotation Zrotation
						JOINT LeftToe_End
						{
							OFFSET 4.510700 0.695400 19.974600
							CHANNELS 3 Xrotation Yrotation Zrotation
							End Site
							{
								OFFSET 0 0 0
							}
						}
					}
				}
			}
		}
	}
	JOINT RightUpLeg_virtual
	{
		OFFSET 0.000000 0.000000 0.000000
		CHANNELS 3 Xrotation Yrotation Zrotation
		JOINT RightUpLeg
		{
			OFFSET -11.333700 -6.187798 -0.413800
			CHANNELS 3 Xrotation Yrotation Zrotation
			JOINT RightLeg
			{
				OFFSET -0.430392 -32.302628 3.733000
				CHANNELS 3 Xrotation Yrotation Zrotation
				JOINT RightFoot
				{
					OFFSET 0.430392 -48.264973 -6.423500
					CHANNELS 3 Xrotation Yrotation Zrotation
					JOINT RightToeBase
					{
						OFFSET -4.230900 -16.068199 23.438400
						CHANNELS 3 Xrotation Yrotation Zrotation
						JOINT RightToe_End
						{
							OFFSET -4.510700 0.695400 19.974600
							CHANNELS 3 Xrotation Yrotation Zrotation
							End Site
							{
								OFFSET 0 0 0
							}
						}
					}
				}
			}
		}
	}
	JOINT Spine_virtual
	{
		OFFSET 0.000000 0.000000 0.000000
		CHANNELS 3 Xrotation Yrotation Zrotation
		JOINT Spine
		{
			OFFSET -0.002400 12.777504 0.315300
			CHANNELS 3 Xrotation Yrotation Zrotation
			JOINT Spine1
			{
				OFFSET -0.002067 5.816869 0.032633
				CHANNELS 3 Xrotation Yrotation Zrotation
				JOINT Spine1_split
				{
					OFFSET -0.002067 5.816869 0.032633
					CHANNELS 3 Xrotation Yrotation Zrotation
					JOINT Spine2
					{
						OFFSET -0.002067 5.816869 0.032633
						CHANNELS 3 Xrotation Yrotation Zrotation
						JOINT Neck_virtual
						{
							OFFSET 0.000000 0.000000 0.000000
							CHANNELS 3 Xrotation Yrotation Zrotation
							JOINT Neck
							{
								OFFSET -0.003700 21.199493 -0.826900
								CHANNELS 3 Xrotation Yrotation Zrotation
								JOINT Head
								{
									OFFSET 0.000000 20.442200 4.834800
									CHANNELS 3 Xrotation Yrotation Zrotation
									JOINT HeadTop_End
									{
										OFFSET 0.000000 34.668396 4.968400
										CHANNELS 3 Xrotation Yrotation Zrotation
										End Site
										{
											OFFSET 0 0 0
										}
									}
								}
							}
						}
						JOINT LeftShoulder_virtual
						{
							OFFSET 0.000000 0.000000 0.000000
							CHANNELS 3 Xrotation Yrotation Zrotation
							JOINT LeftShoulder
							{
								OFFSET 3.288150 8.794197 -1.372250
								CHANNELS 3 Xrotation Yrotation Zrotation
								JOINT LeftShoulder_split
								{
									OFFSET 3.288150 8.794197 -1.372250
									CHANNELS 3 Xrotation Yrotation Zrotation
									JOINT LeftArm
									{
										OFFSET 11.953299 -2.279007 -0.146200
										CHANNELS 3 Xrotation Yrotation Zrotation
										JOINT LeftForeArm
										{
											OFFSET 18.448900 0.000000 0.000000
											CHANNELS 3 Xrotation Yrotation Zrotation
											JOINT LeftHand
											{
												OFFSET 29.527798 0.000000 0.000000
												CHANNELS 3 Xrotation Yrotation Zrotation
												End Site
												{
													OFFSET 0 0 0
												}
											}
										}
									}
								}
							}
						}
						JOINT RightShoulder_virtual
						{
							OFFSET 0.000000 0.000000 0.000000
							CHANNELS 3 Xrotation Yrotation Zrotation
							JOINT RightShoulder
							{
								OFFSET -3.249400 8.794197 -1.372250
								CHANNELS 3 Xrotation Yrotation Zrotation
								JOINT RightShoulder_split
								{
									OFFSET -3.249400 8.794197 -1.372250
									CHANNELS 3 Xrotation Yrotation Zrotation
									JOINT RightArm
									{
										OFFSET -11.953299 -2.279007 -0.146200
										CHANNELS 3 Xrotation Yrotation Zrotation
										JOINT RightForeArm
										{
											OFFSET -18.448900 0.000000 0.000000
											CHANNELS 3 Xrotation Yrotation Zrotation
											JOINT RightHand
											{
												OFFSET -29.527802 0.000000 0.000000
												CHANNELS 3 Xrotation Yrotation Zrotation
												End Site
												{
													OFFSET 0 0 0
												}
											}
										}
									}
								}
							}
						}
					}
				}
			}
		}
	}
}
MOTION
Frames: 7
Frame Time: 0.03333333
0.052208 82.558853 0.690735 0.000000 0.000000 0.000000 10.425106 5.273706 -1.350103 -52.319775 4.081549 2.751651 70.797766 10.377058 0.488398 -26.317988 6.991547 -4.630781 -5.963772 -0.643500 -0.299624 0.000000 0.000000 0.000000 10.952032 4.718495 -1.209499 -45.889247 -12.387722 -4.404018 71.587220 -7.911298 -3.953307 -32.063906 -10.911664 4.721891 1.602244 1.314023 -0.757759 0.000000 0.000000 0.000000 10.471894 2.678168 -0.826631 9.395922 1.283803 1.837622 8.772971 1.918225 -0.485458 0.828004 -0.581158 0.368871 0.000000 0.000000 0.000000 8.860058 0.831859 0.128944 -10.266676 -1.316490 6.179191 -25.803259 1.865838 -7.247366 0.000000 0.000000 0.000000 9.088431 0.494801 -0.006662 3.305958 -24.535558 3.973134 -2.632666 0.748084 -3.265785 -62.262768 -25.057719 -65.153352 177.456101 -72.647723 175.605735 0.000000 0.000000 0.000000 8.242369 0.631420 0.258246 0.019071 12.058702 10.743744 1.010093 6.463592 0.108052 -63.269729 31.502444 50.790451 -179.134060 70.618337 178.263744 0.000000 0.000000 0.000000 
0.048200 82.554535 0.688290 0.000000 0.000000 0.000000 10.402382 5.255292 -1.339144 -52.306507 4.093014 2.760517 70.813141 10.372802 0.492051 -26.321760 6.995062 -4.629839 -5.971160 -0.645841 -0.304258 0.000000 0.000000 0.000000 10.927942 4.696511 -1.199023 -45.888985 -12.383976 -4.403907 71.599043 -7.903476 -3.957575 -32.075224 -10.914601 4.704230 1.604690 1.312786 -0.755574 0.000000 0.000000 0.000000 10.456973 2.659826 -0.821297 9.397596 1.268781 1.848156 8.792095 1.901730 -0.479452 0.825295 -0.580986 0.368242 0.000000 0.000000 0.000000 8.879444 0.813079 0.134692 -10.269348 -1.296777 6.162331 -25.819046 1.934019 -7.267398 0.000000 0.000000 0.000000 9.111302 0.477853 -0.001190 3.305440 -24.545297 3.970773 -2.635041 0.766391 -3.244691 -62.284632 -25.002804 -65.170933 177.451047 -72.692447 175.616485 0.000000 0.000000 0.000000 8.265810 0.614167 0.262855 0.013106 12.103262 10.714667 0.995708 6.449188 0.098904 -63.296599 31.466825 50.772338 -179.154646 70.679535 178.291925 0.000000 0.000000 0.000000 
0.045024 82.547554 0.685535 0.000000 0.000000 0.000000 10.375984 5.241354 -1.331644 -52.293007 4.099285 2.767812 70.833501 10.367175 0.498021 -26.326208 7.003194 -4.629164 -5.983249 -0.647519 -0.311278 0.000000 0.000000 0.000000 10.902156 4.674497 -1.190795 -45.889555 -12.382768 -4.402634 71.617307 -7.897086 -3.960650 -32.084455 -10.915392 4.685919 1.605571 1.311645 -0.753337 0.000000 0.000000 0.000000 10.437769 2.638033 -0.816132 9.400993 1.256996 1.857805 8.807855 1.889493 -0.473798 0.816472 -0.573159 0.365651 0.000000 0.000000 0.000000 8.891428 0.798245 0.140142 -10.266851 -1.277521 6.147642 -25.822034 1.992528 -7.281771 0.000000 0.000000 0.000000 9.131404 0.463643 0.004569 3.304562 -24.550362 3.964082 -2.651069 0.773002 -3.233199 -62.322860 -24.941119 -65.171814 177.448096 -72.744028 175.627222 0.000000 0.000000 0.000000 8.284444 0.600113 0.268114 0.007492 12.144312 10.687213 0.984851 6.440091 0.096135 -63.348386 31.409455 50.779397 -179.156477 70.741034 178.296802 0.000000 0.000000 0.000000 
0.042356 82.538193 0.683525 0.000000 0.000000 0.000000 10.347554 5.230422 -1.325260 -52.275744 4.102114 2.768370 70.852831 10.363218 0.504538 -26.333869 7.017531 -4.629461 -5.995164 -0.648489 -0.319205 0.000000 0.000000 0.000000 10.874675 4.651886 -1.182295 -45.889835 -12.382635 -4.401825 71.642612 -7.890422 -3.964234 -32.090182 -10.913331 4.673689 1.602939 1.311061 -0.752262 0.000000 0.000000 0.000000 10.413540 2.612078 -0.807530 9.404140 1.248342 1.865087 8.818575 1.881411 -0.468624 0.804349 -0.563637 0.364691 0.000000 0.000000 0.000000 8.898227 0.788603 0.144956 -10.253897 -1.262124 6.133172 -25.819401 2.025439 -7.287728 0.000000 0.000000 0.000000 9.147080 0.453507 0.010683 3.303016 -24.546861 3.959817 -2.668664 0.762298 -3.236497 -62.363274 -24.891345 -65.148482 177.452235 -72.738537 175.639298 0.000000 0.000000 0.000000 8.297082 0.590558 0.273680 0.002614 12.174473 10.657239 0.983427 6.443334 0.105259 -63.407774 31.342454 50.820596 -179.149483 70.748739 178.289876 0.000000 0.000000 0.000000 
0.039314 82.527855 0.684063 0.000000 0.000000 0.000000 10.319493 5.220446 -1.317533 -52.252726 4.105138 2.761325 70.867372 10.362898 0.510058 -26.342682 7.036653 -4.632441 -6.004307 -0.649158 -0.323575 0.000000 0.000000 0.000000 10.846675 4.630964 -1.171811 -45.888629 -12.382281 -4.402856 71.672317 -7.882193 -3.970274 -32.094267 -10.908658 4.671858 1.597704 1.311476 -0.752703 0.000000 0.000000 0.000000 10.385288 2.585283 -0.795355 9.405713 1.241842 1.868337 8.824337 1.877009 -0.464464 0.797992 -0.552659 0.363687 0.000000 0.000000 0.000000 8.901189 0.784387 0.149242 -10.232546 -1.253380 6.118478 -25.818901 2.027286 -7.284844 0.000000 0.000000 0.000000 9.157435 0.448159 0.017007 3.301811 -24.537251 3.962477 -2.679562 0.744067 -3.249311 -62.386866 -24.864949 -65.100001 177.458177 -72.656397 175.644831 0.000000 0.000000 0.000000 8.303728 0.585326 0.278943 -0.000820 12.191954 10.625582 0.987036 6.450423 0.121917 -63.463222 31.284315 50.888164 -179.137721 70.692444 178.277650 0.000000 0.000000 0.000000 
0.035829 82.517899 0.686054 0.000000 0.000000 0.000000 10.294370 5.207426 -1.307144 -52.225013 4.110693 2.748601 70.877337 10.366795 0.513248 -26.349572 7.058307 -4.637291 -6.007320 -0.649822 -0.323561 0.000000 0.000000 0.000000 10.820323 4.612579 -1.159083 -45.885064 -12.380806 -4.405741 71.701728 -7.873310 -3.979220 -32.100919 -10.902768 4.678111 1.593366 1.312932 -0.754264 0.000000 0.000000 0.000000 10.357210 2.562891 -0.781013 9.406680 1.236626 1.867910 8.826247 1.875256 -0.461558 0.797902 -0.542460 0.361659 0.000000 0.000000 0.000000 8.902850 0.784988 0.152755 -10.208618 -1.252367 6.106313 -25.829120 2.000311 -7.277573 0.000000 0.000000 0.000000 9.162782 0.447137 0.022032 3.300850 -24.527848 3.971461 -2.675770 0.732719 -3.264842 -62.384510 -24.858137 -65.034015 177.465855 -72.524444 175.643232 0.000000 0.000000 0.000000 8.306033 0.584876 0.283097 -0.003508 12.198111 10.593734 1.004130 6.463008 0.136037 -63.510514 31.249031 50.963890 -179.128459 70.607975 178.267978 0.000000 0.000000 0.000000 
0.031589 82.510384 0.688946 0.000000 0.000000 0.000000 10.273877 5.192173 -1.294395 -52.197948 4.118736 2.733942 70.885131 10.373867 0.514787 -26.352617 7.079250 -4.642961 -6.003284 -0.649788 -0.322459 0.000000 0.000000 0.000000 10.797364 4.599428 -1.145311 -45.878657 -12.379358 -4.409916 71.729089 -7.865975 -3.989864 -32.113360 -10.897952 4.685079 1.592712 1.315195 -0.755009 0.000000 0.000000 0.000000 10.333399 2.547702 -0.767008 9.408172 1.232358 1.865029 8.825263 1.875577 -0.460017 0.806389 -0.536371 0.361095 0.000000 0.000000 0.000000 8.904548 0.788404 0.154958 -10.191139 -1.258860 6.099064 -25.851745 1.956744 -7.270266 0.000000 0.000000 0.000000 9.165105 0.449040 0.024583 3.300507 -24.521296 3.985304 -2.654608 0.733684 -3.274851 -62.369579 -24.861438 -64.968070 177.468027 -72.391413 175.632003 0.000000 0.000000 0.000000 8.306907 0.588321 0.285041 -0.005531 12.197719 10.567308 1.026815 6.472288 0.135571 -63.555955 31.248081 51.028080 -179.120604 70.548061 178.258730 0.000000 0.000000 0.000000 
